<?xml version="1.0" standalone="no"?>
<!DOCTYPE svg PUBLIC "-//W3C//DTD SVG 20010904//EN"
 "http://www.w3.org/TR/2001/REC-SVG-20010904/DTD/svg10.dtd">
<svg version="1.0" xmlns="http://www.w3.org/2000/svg"
 width="259.000000pt" height="280.000000pt" viewBox="0 0 259.000000 280.000000"
 preserveAspectRatio="xMidYMid meet">

<g transform="translate(0.000000,280.000000) scale(0.100000,-0.100000)"
fill="#000000" stroke="none">
<path d="M1265 2282 c-9 -10 -223 -445 -476 -967 -494 -1019 -484 -995 -417
-1003 29 -3 644 220 664 241 6 7 78 149 159 317 192 397 248 481 433 641 l64
55 -175 356 c-188 384 -208 412 -252 360z"/>
<path d="M1671 1468 c-143 -154 -237 -342 -248 -499 l-6 -76 88 -172 c49 -94
93 -175 99 -179 22 -17 614 -232 638 -232 28 0 48 17 48 42 0 18 -566 1158
-574 1158 -3 0 -23 -19 -45 -42z"/>
</g>
</svg>
